# xmcd CD database file
# Copyright (C) 1996 Ti Kan
#
# Track frame offsets:
#	150
#	18510
#	37422
#	54855
#	72935
#	92187
#	108760
#	128307
#	146027
#	163537
#	165930
#	182912
#	209347
# Disc length: 3084 seconds
#
# Revision: 1
# Processed by: cddbd v1.4PL0 Copyright (c) Steve Scherf et al.
# Submitted via: CDCOPY 4.900
#
DISCID=ac0c0a0d
DTITLE=David Usher - Hallucinations
DYEAR=1900
DGENRE=
TTITLE0=Hallucinations
TTITLE1=I'm Coming Down
TTITLE2=Numb
TTITLE3=Time of Our Lives
TTITLE4=Devil By My Side
TTITLE5=Message Home
TTITLE6=In This Light
TTITLE7=Surfacing
TTITLE8=Tomorrow Comes
TTITLE9=Tidal
TTITLE10=Fearless
TTITLE11=If You Tolerate This Your Children Will Be Next
TTITLE12=bonus track
EXTD=
EXTT0=
EXTT1=
EXTT2=
EXTT3=
EXTT4=
EXTT5=
EXTT6=
EXTT7=
EXTT8=
EXTT9=
EXTT10=
EXTT11=
EXTT12=
PLAYORDER=
